<svg width="44" height="44" viewBox="0 0 44 44" fill="none" xmlns="http://www.w3.org/2000/svg">
<rect width="44" height="44" rx="22" fill="white"/>
<path d="M17.3396 13H13.9868C13.4341 13 12.9844 13.4497 13.0004 14.0022C13.3201 25.0141 18.9859 30.6799 29.9978 30.9996C30.5503 31.0156 31 30.5659 31 30.0132V26.6604C31 26.2649 30.7671 25.9065 30.4057 25.7459L27.0654 24.2613C26.7171 24.1065 26.3111 24.163 26.0183 24.407L23.9654 26.1178C23.6762 26.3587 23.2747 26.4181 22.9315 26.2637C20.0586 24.971 19.0289 23.9414 17.7363 21.0685C17.5819 20.7253 17.6413 20.3238 17.8822 20.0346L19.5929 17.9817C19.837 17.6889 19.8935 17.2829 19.7386 16.9346L18.2541 13.5943C18.0935 13.2329 17.7351 13 17.3396 13Z" stroke="#25A274" stroke-width="1.5" stroke-linecap="round" stroke-linejoin="round"/>
</svg>
