<svg width="25" height="24" viewBox="0 0 25 24" fill="none" xmlns="http://www.w3.org/2000/svg">
<path fill-rule="evenodd" clip-rule="evenodd" d="M4.78749 3.13745C3.51861 3.51401 2.75 4.681 2.75 5.90114V15.1109C2.74998 16.0675 2.74996 16.8561 2.83362 17.5045C2.92217 18.1908 3.11028 18.7808 3.52298 19.3226C4.29914 20.3414 5.56493 20.6825 7.09374 21.0945C9.89248 21.8507 12.8234 22.2985 15.4379 22.5539C16.7263 22.6799 17.842 22.7889 18.6943 22.7385C19.5973 22.6852 20.364 22.4566 21.0222 21.8551C21.6878 21.2469 21.9818 20.4721 22.119 19.5411C22.25 18.6519 22.25 17.523 22.25 16.1294V14.005C22.25 12.6461 22.25 11.5558 22.1434 10.6993C22.0334 9.81615 21.7987 9.06812 21.2429 8.46866C20.8097 8.00144 20.251 7.7218 19.6061 7.53936C19.3205 7.45856 19.1777 7.41816 19.1163 7.32234C19.0549 7.22652 19.0772 7.08436 19.1217 6.80004C19.1965 6.32171 19.2469 5.80455 19.2499 5.28705C19.2554 4.30189 19.0913 3.12467 18.387 2.26628C17.4266 1.09578 15.9925 1.22142 15.1683 1.29363C10.2941 1.70754 6.73972 2.5581 4.78749 3.13745ZM15.2412 3.16921C15.7217 3.1284 16.058 3.10642 16.3415 3.15136C16.5784 3.18892 16.7313 3.26634 16.8657 3.43022C17.1498 3.77638 17.3139 4.4144 17.309 5.2768C17.3064 5.7428 17.2549 6.21953 17.1803 6.65629C17.1397 6.89378 17.1194 7.01253 17.0281 7.08399C16.9367 7.15546 16.8108 7.1461 16.5591 7.1274C16.2397 7.10367 15.9049 7.08048 15.5559 7.0563C11.3417 6.76428 7.72733 6.21272 5.37727 5.69911C5.08675 5.63561 4.94149 5.60387 4.90399 5.40991C4.86649 5.21595 4.95209 5.15775 5.1233 5.04134C5.19674 4.99141 5.27599 4.95345 5.35808 4.92909C7.19586 4.3837 10.5184 3.57028 15.2412 3.16921ZM17 13C18.1046 13 19 13.8954 19 15C19 16.1046 18.1046 17 17 17C15.8954 17 15 16.1046 15 15C15 13.8954 15.8954 13 17 13Z" fill="#909090"/>
</svg>
